<svg xmlns="http://www.w3.org/2000/svg" width="586.5719" height="114.57356"><defs><linearGradient id="b" x1="0" x2="1" y1="0" y2="0" gradientTransform="matrix(0 85.747269 85.747269 0 421.57959 291.89648)" gradientUnits="userSpaceOnUse" spreadMethod="pad"><stop offset="0" style="stop-color:#2e3192;stop-opacity:1"/><stop offset="1" style="stop-color:#00adef;stop-opacity:1"/></linearGradient><clipPath id="a"><path d="M0 595.276h841.89V0H0Z"/></clipPath></defs><g clip-path="url(#a)" style="display:inline" transform="matrix(1.25 0 0 -1.25 -237.05809 476.69475)"><path d="m655.904 297.84-.435-1.701-.438 1.701h-8.318v-2.391h1.679v-4.159h2.677v4.159h.945v-4.159h6.89v6.55z" style="fill:#fff;fill-opacity:1;fill-rule:nonzero;stroke:none"/><path d="M651.995 297.09v-.891h-1.676v-4.159h-1.177v4.159h-1.679v.891zM656.486 297.09h1.668v-5.05h-1.071v3.415c0 .1.002.238.005.412v.412l-1.066-4.239h-1.139l-1.056 4.239c0-.095.001-.234.004-.412.003-.174.003-.312.003-.412v-3.415h-1.07v5.05h1.686l1.022-3.972z" style="fill:#2e3192;fill-opacity:1;fill-rule:nonzero;stroke:none"/><path d="M580.754 356.075c12.156-6.534 5.832-20.633-5.618-26.647h-5.086c1.653 4.118 6.391 15.918 10.704 26.647m64.811-24.029c7.242-11.399 1.445-20.825-9.46-23.606-17.235-4.392-22.509 10.162-9.695 11.721 18.219 2.209 14.852 16.426 8.851 21.134-6.875 5.391-15.493 14.178-6.875 17.107 7.972 2.708 11.687 8.022 10.315 13.472-1.769 7.046-12.089 12.796-19.585 7.278 7.602 1.62 10.395-6.475 6.69-9.364-4.785-3.722-16.414-4.986-17.932-11.744-2.113-9.407 6.339-9.312 7.189-21.922.853-12.607-21.831-8.654-16.203 2.821 2.156 4.4 2.494 18.264-17.773 17.969 4.134 10.294 7.781 19.38 7.781 19.38h-18.243c-4.471 0-8.955-2.442-11.191-5.887.017.046 2.363 5.887 2.363 5.887h-18.242c-5.155 0-10.336-3.241-12.059-7.529l-.99-2.464c-.168 1.886-.856 3.677-2.054 5.223-2.339 3.03-6.31 4.77-10.904 4.77h-23.823c-7.849 0-15.735-4.901-18.341-11.387 0 0-8.006-19.946-11.515-28.675 1.098 8.231 3.058 22.969 3.463 26.008 3.278 1.252 5.968 3.664 7.139 6.57l3.006 7.484h-30.642c-4.749 0-10.009-2.714-12.512-6.452l-27.068-40.412h-16.393c1.689 4.203 3.113 7.748 4.113 10.235h9.568c5.151 0 10.334 3.235 12.057 7.527l3.005 7.48h-18.604c1.225 3.052 1.881 4.684 2.653 6.611h11.78c5.149 0 10.337 3.239 12.058 7.527l3.002 7.484h-39.055c-5.153 0-10.337-3.241-12.06-7.529l-15.796-39.335h-14.585c3.291 8.196 18.821 46.864 18.821 46.864h-18.245c-5.15 0-10.336-3.241-12.058-7.529l-1.007-2.509c-.163 1.914-.869 3.722-2.067 5.268-2.338 3.03-6.314 4.77-10.904 4.77H274.2c-5.152 0-10.336-3.241-12.059-7.529l-3.005-7.482h21.322c-2.343-5.83-11.046-27.504-12.73-31.694-11.731 6.354-17.871 21.179-3.72 27.257-22.225 1.235-21.93-13.365-19.709-17.901 5.631-11.475-17.056-15.428-16.204-2.821.852 12.61 9.304 12.515 7.191 21.922-1.519 6.758-13.147 8.022-17.934 11.744-3.702 2.889-.911 10.984 6.691 9.364-7.498 5.518-17.814-.232-19.585-7.278-1.371-5.45 2.344-10.764 10.316-13.472 8.619-2.929 0-11.716-6.876-17.107-6.001-4.708-9.366-18.925 8.852-21.134 12.818-1.559 7.542-16.113-9.697-11.721-10.904 2.781-16.698 12.207-9.459 23.606-15.161-11.069-8.456-40.653 18.618-42.159 19.161-1.059 25.775 2.653 48.399 2.653l.003.004h313.933v-.004c22.628 0 29.239-3.712 48.398-2.653 27.075 1.506 33.783 31.09 18.62 42.159" style="fill:url(#b);stroke:none"/><path d="M421.711 372.429h-30.272c-3.397 0-6.936-2.188-8.058-4.985l-19.744-49.161h32.979c3.394 0 6.933 2.189 8.056 4.988l.924 2.298h-20.812c1.384 3.45 6.488 16.16 7.209 17.952h12.55c3.392 0 6.936 2.192 8.057 4.99l.925 2.301H394.92c1.297 3.233 5.07 12.626 5.756 14.331h14.758c3.395 0 6.934 2.191 8.056 4.985l.922 2.301zM580.086 372.429h-9.461c-3.396 0-6.934-2.188-8.058-4.985 0 0-5.885-14.655-6.679-16.632h-8.856c1.478 3.67 8.684 21.617 8.684 21.617h-12.161c-3.398 0-6.941-2.188-8.057-4.985l-19.742-49.161h12.157c3.399 0 6.938 2.189 8.063 4.988 0 0 7.317 18.227 8.133 20.25h8.854c-1.528-3.801-10.137-25.238-10.137-25.238h33.496c3.398 0 6.936 2.189 8.063 4.988l.92 2.298h-21.331c1.668 4.164 18.816 46.86 18.816 46.86zM359.036 372.429h-9.462c-3.395 0-6.934-2.188-8.057-4.985l-19.744-49.161h32.976c3.395 0 6.937 2.189 8.061 4.988l.92 2.298h-20.812c1.673 4.164 18.819 46.86 18.819 46.86zM303.846 343.521c.651 0 1.155-.165 1.382-.459.112-.144.151-.317.151-.487 0-.233-.071-.456-.131-.607l-5.489-13.669c-.583-1.455-2.687-2.73-4.502-2.73h-6.391c1.383 3.45 6.487 16.16 7.208 17.952zm8.681 21.622c.653 0 1.157-.171 1.384-.464.112-.142.151-.318.151-.488 0-.232-.071-.453-.132-.606l-4.033-10.044c-.585-1.455-2.689-2.729-4.504-2.729h-6.392c1.299 3.233 5.072 12.626 5.755 14.331zm-38.327 7.286c-3.396 0-6.937-2.188-8.059-4.985l-.923-2.301h21.32c-1.475-3.67-15.079-37.545-15.892-39.574h-2.75c-3.394 0-6.935-2.19-8.056-4.983l-.926-2.303h44.256c6.047 0 12.345 3.882 14.338 8.845l4.712 11.735c.41 1.02.613 2.024.613 2.987 0 1.432-.449 2.768-1.334 3.914-.304.391-.665.742-1.054 1.064 3.627 1.554 6.693 4.283 7.975 7.467l3.258 8.118c.41 1.018.613 2.022.613 2.984 0 1.429-.45 2.766-1.336 3.916-1.532 1.981-4.235 3.116-7.417 3.116zM445.141 359.257c-.786-5.924-1.51-11.347-1.726-12.978h-6.965c1.788 2.669 5.018 7.489 8.691 12.978m48.584 13.172c-6.049 0-12.347-3.884-14.34-8.844l-14.166-35.286c-.37-.915-.552-1.835-.581-2.73h-6.476c.448 3.383 4.938 37.104 5.278 39.653 3.056.383 6.018 2.391 7.027 4.906l.926 2.301h-24.558c-3.255 0-7.151-2.018-8.875-4.595l-33.191-49.551h7.133c3.25 0 7.147 2.018 8.875 4.592 0 0 9.79 14.619 10.795 16.113h10.873c-.403-3.017-2.001-15.017-2.001-15.017-.026-.202-.041-.406-.041-.605 0-1.196.473-2.324 1.364-3.234 1.151-1.174 2.898-1.849 4.789-1.849h50.624c6.049 0 12.347 3.882 14.337 8.845l7.675 19.111h-18.216l-7.205-17.94c-.585-1.455-2.687-2.73-4.5-2.73h-4.904c-.653 0-1.159.17-1.385.466-.262.339-.126.831-.02 1.093l14.171 35.285c.583 1.455 2.687 2.73 4.502 2.73h4.905c.65 0 1.153-.171 1.382-.464.263-.34.126-.833.016-1.094l-6.218-15.487h18.219l5.75 14.315c1.015 2.526.762 4.979-.72 6.9-1.532 1.981-4.24 3.116-7.421 3.116z" style="fill:#fff;fill-opacity:1;fill-rule:nonzero;stroke:none"/><path d="M404.543 345.236c2.598 0 5.426 1.74 6.279 3.859h-18.604l7.131 17.759h16.085c2.601 0 5.425 1.739 6.277 3.864h-30.272c-2.602 0-5.43-1.74-6.28-3.864l-18.818-46.858h30.275c2.601 0 5.425 1.739 6.277 3.859H382.08l8.588 21.381zM561.27 323.855l18.816 46.863h-9.461c-2.603 0-5.424-1.74-6.276-3.864l-7.137-17.759h-12.878l8.682 21.623h-9.461c-2.603 0-5.431-1.74-6.284-3.864l-18.818-46.858h9.46c2.604 0 5.432 1.739 6.283 3.859l8.588 21.381h12.877l-10.134-25.24h30.795c2.607 0 5.43 1.739 6.283 3.859M340.216 323.855l18.82 46.863h-9.462c-2.601 0-5.426-1.74-6.279-3.864l-18.82-46.858h30.274c2.605 0 5.428 1.739 6.281 3.859zM315.707 362.998l-4.032-10.044c-.853-2.12-3.678-3.859-6.282-3.859h-9.094l7.134 17.759h9.094c2.6 0 4.034-1.734 3.18-3.856m-8.682-21.618-5.487-13.667c-.853-2.12-3.679-3.858-6.281-3.858h-9.095l8.587 21.381h9.097c2.6 0 4.033-1.733 3.179-3.856m16.513 29.338H274.2c-2.602 0-5.428-1.74-6.281-3.864h21.323c-3.796-9.444-13.477-33.552-17.271-42.999h-4.075c-2.6 0-5.428-1.734-6.28-3.859h41.554c5.203 0 10.856 3.474 12.559 7.717l4.714 11.735c1.704 4.244-1.159 7.72-6.362 7.72 5.203 0 10.854 3.472 12.56 7.715l3.258 8.115c1.704 4.241-1.158 7.72-6.361 7.72M445.094 344.563h-12.008l14.984 22.371zm72.454 26.155h-23.823c-5.205 0-10.856-3.479-12.561-7.72l-14.167-35.285c-.564-1.402-.621-2.722-.267-3.858h-10.703l5.723 42.999h.659c2.605 0 5.432 1.739 6.279 3.864h-21.853c-2.604 0-5.872-1.7-7.26-3.773l-31.443-46.949h3.77c2.602 0 5.865 1.694 7.254 3.771l11.348 16.938h14.073l-2.253-16.938c-.276-2.077 1.629-3.771 4.232-3.771h50.624c5.205 0 10.856 3.474 12.561 7.717l6.752 16.811H502.3l-6.749-16.811c-.854-2.12-3.681-3.858-6.28-3.858h-4.904c-2.601 0-4.036 1.738-3.182 3.858l14.171 35.285c.851 2.122 3.676 3.856 6.279 3.856h4.905c2.602 0 4.034-1.734 3.177-3.856l-5.292-13.189h14.188l5.299 13.189c1.704 4.241-1.159 7.72-6.364 7.72M267.896 312.915c-3.394 0-6.935-2.125-8.056-4.844l-.926-2.231h98.797c3.395 0 6.934 2.124 8.058 4.839l.925 2.236z" style="fill:#ed1c24;fill-opacity:1;fill-rule:nonzero;stroke:none"/><path d="M428.386 303.246h18.235l1.083 2.701h-18.236zM392.346 306.191h3.751l2.697 6.724h-3.749zM397.986 306.191h3.751l2.698 6.724h-3.75zM369.154 310.225h13.503l-5.549-13.819h9.416l6.629 16.509h-22.918zM467.483 305.947l1.333 3.329 4.907.234 1.345 3.353-19.747-.952-1.347-3.351 5.238.251-1.146-2.864h-6.889l-1.084-2.701h6.889l-2.749-6.84h9.418l2.749 6.84h6.551l1.089 2.701zM412.743 296.406h9.42l6.627 16.509h-9.416zM403.936 303.018h9.417l3.975 9.897h-9.419z" style="fill:#fff;fill-opacity:1;fill-rule:nonzero;stroke:none"/><path d="M267.896 303.477c-3.394 0-6.935-2.124-8.056-4.838l-.926-2.233h98.797c3.395 0 6.934 2.126 8.058 4.838l.925 2.233zM487.069 312.915c-3.396 0-6.937-2.125-8.062-4.844l-.923-2.231h98.796c3.395 0 6.934 2.124 8.06 4.839l.921 2.236zM487.069 303.477c-3.396 0-6.937-2.124-8.062-4.838l-.923-2.233h98.796c3.395 0 6.934 2.126 8.06 4.838l.921 2.233z" style="fill:#ed1c24;fill-opacity:1;fill-rule:nonzero;stroke:none"/><path d="m254.52 295.959 1.715 4.148c.394.951.979 1.841 1.702 2.656h-4.506l2.804 6.777c.986 2.384 3.145 4.413 5.763 5.662h-8.512l2.737 6.82c1.11 2.765 3.726 5.067 6.821 6.283.1.039.204.069.306.103-6.952 4.594-11.368 11.515-11.368 18.036 0 .248.007.504.02.754.106 1.992.652 3.846 1.562 5.543-1.982-.672-3.735-1.685-4.931-3.243-1.314-1.717-1.734-3.706-1.734-5.416 0-1.518.333-2.81.663-3.484.822-1.678 1.228-3.337 1.228-4.922 0-2.605-1.095-5.008-3.24-6.939-3.82-3.433-10.109-4.487-14.956-2.498-4.078 1.67-6.361 5.104-6.361 9.493 0 .289.01.584.03.884.477 7.063 3.198 10.859 5.186 13.628 1.447 2.017 2.343 3.269 2.343 5.276 0 .622-.086 1.323-.27 2.14-.599 2.663-4.826 4.342-8.914 5.965-2.928 1.162-5.693 2.261-7.801 3.903-1.907 1.485-2.916 3.744-2.916 6.129 0 1.115.296 2.238.748 3.343-2.319-1.292-4.142-3.394-4.694-5.586-.121-.481-.179-.957-.179-1.428 0-3.346 2.996-6.383 8.185-8.151 4.208-1.428 5.528-3.938 5.894-5.79.083-.424.124-.851.124-1.297 0-4.299-3.95-9.579-11.77-15.709-1.927-1.512-3.491-4.532-3.491-7.391 0-.731.101-1.45.325-2.13 1.281-3.888 6.189-5.268 10.08-5.738 4.908-.6 8.482-2.867 9.808-6.226.354-.895.529-1.825.529-2.752 0-2.204-.985-4.407-2.855-6.221-4.007-3.893-10.989-5.048-18.675-3.092-5.491 1.403-9.913 4.326-12.576 8.174.179-1.639.538-3.298 1.118-4.947 3.137-8.922 11.305-14.602 21.849-15.186 9.764-.539 16.063.192 23.357 1.041 4.307.505 9.002 1.048 14.84 1.361zM636.981 305.489c-7.683-1.956-14.661-.801-18.674 3.092-1.869 1.814-2.854 4.017-2.854 6.221 0 .927.172 1.857.527 2.752 1.328 3.359 4.905 5.626 9.809 6.226 3.893.47 8.799 1.85 10.078 5.738.226.68.325 1.399.325 2.13 0 2.859-1.56 5.879-3.486 7.391-7.823 6.13-11.772 11.41-11.772 15.709 0 .446.041.873.127 1.297.365 1.852 1.684 4.362 5.894 5.79 5.188 1.768 8.18 4.805 8.18 8.151 0 .471-.059.947-.179 1.428-.55 2.192-2.371 4.294-4.692 5.586.452-1.105.748-2.228.748-3.343 0-2.385-1.009-4.644-2.913-6.129-2.111-1.642-4.873-2.741-7.805-3.903-4.088-1.623-8.315-3.302-8.915-5.965-.181-.817-.268-1.518-.268-2.14 0-2.007.898-3.259 2.346-5.276 1.984-2.769 4.706-6.565 5.18-13.628.021-.3.033-.595.033-.884 0-4.389-2.285-7.823-6.359-9.493-4.85-1.989-11.139-.935-14.958 2.498-2.144 1.931-3.238 4.334-3.238 6.939 0 1.585.406 3.244 1.225 4.922.327.668.659 1.96.659 3.484 0 1.654-.397 3.585-1.618 5.262-1.127 1.547-2.833 2.69-5.085 3.439 1.049-1.926 1.624-4.051 1.624-6.334v-.079c-.035-6.118-4.009-12.614-10.204-17.153h9.762l-2.737-6.812c-.99-2.464-3.178-4.557-5.834-5.842h9.183l-2.805-6.777c-.394-.951-.977-1.845-1.699-2.655h4.504l-2.805-6.781c-.676-1.632-1.907-3.095-3.454-4.266 7.555-.25 13.256-.91 18.406-1.513 7.295-.849 13.591-1.58 23.355-1.041 10.545.584 18.713 6.264 21.848 15.186.581 1.649.942 3.308 1.12 4.947-2.665-3.848-7.086-6.771-12.579-8.174" style="fill:#fff;fill-opacity:1;fill-rule:nonzero;stroke:none"/></g></svg>